<svg width="53" height="33" viewBox="0 0 53 33" fill="none" xmlns="http://www.w3.org/2000/svg">
<path d="M13.8411 31.0236C11.8252 28.7467 10.1775 25.3852 9.60568 23.989C10.6957 24.2396 13.361 24.4719 15.2375 24.1497C17.0318 23.8416 19.5801 23.022 21.8318 20.5518C23.937 18.2424 25.212 14.8057 24.9949 11.3693C24.8574 9.19306 23.7618 4.35183 18.8831 1.81078C13.5219 -0.981577 9.18195 0.521803 6.33783 2.24057C3.09327 4.20133 1.33407 8.24293 1.24457 9.5439C1.13744 11.1012 0.3445 13.6388 1.77828 18.1895C3.01332 22.1095 4.90437 24.8084 6.49616 26.6202C8.85494 29.3051 11.2498 30.8804 12.9833 31.9901C14.0553 32.6765 14.5541 31.829 13.8411 31.0236Z" fill="#591902"/>
<path d="M41.7629 31.0236C39.7471 28.7467 38.0994 25.3852 37.5276 23.989C38.6176 24.2396 41.2829 24.4719 43.1594 24.1497C44.9536 23.8416 47.502 23.022 49.7537 20.5518C51.8589 18.2424 53.1339 14.8057 52.9168 11.3693C52.7793 9.19306 51.6837 4.35183 46.805 1.81078C41.4438 -0.981577 37.1038 0.521803 34.2597 2.24057C31.0151 4.20133 29.2559 8.24293 29.1664 9.5439C29.0593 11.1012 28.2664 13.6388 29.7002 18.1895C30.9352 22.1095 32.8262 24.8084 34.418 26.6202C36.7768 29.3051 39.1717 30.8804 40.9051 31.9901C41.9772 32.6765 42.476 31.829 41.7629 31.0236Z" fill="#591902"/>
</svg>
