<svg width="31" height="32" viewBox="0 0 31 32" fill="none" xmlns="http://www.w3.org/2000/svg">
<path d="M15.5 0.214844L15.5073 15.7148H0C0 15.7148 7.10863 14.7705 11.0578 10.9999C15.0069 7.22927 15.5 0.214844 15.5 0.214844Z" fill="#FFFBEF"/>
<path d="M15.5 31.2148L15.5073 15.7148H0C0 15.7148 7.10863 16.6591 11.0578 20.4298C15.0069 24.2004 15.5 31.2148 15.5 31.2148Z" fill="#FFFBEF"/>
<path d="M15.5 0.214844L15.4927 15.7148H31C31 15.7148 23.8914 14.7705 19.9422 10.9999C15.9931 7.22927 15.5 0.214844 15.5 0.214844Z" fill="#FFFBEF"/>
<path d="M15.5 31.2148L15.4927 15.7148H31C31 15.7148 23.8914 16.6591 19.9422 20.4298C15.9931 24.2004 15.5 31.2148 15.5 31.2148Z" fill="#FFFBEF"/>
</svg>
