<svg width="783" height="1007" viewBox="0 0 783 1007" fill="none" xmlns="http://www.w3.org/2000/svg">
<path d="M391.348 0V503.5H0C0 503.5 192.5 481.169 286 392C379.5 302.831 391.348 0 391.348 0Z" fill="#C7CECC"/>
<path d="M391.348 1007V503.5H0C0 503.5 192.5 525.831 286 615C379.5 704.169 391.348 1007 391.348 1007Z" fill="#C7CECC"/>
<path d="M391 0V503.5H782.348C782.348 503.5 589.848 481.169 496.348 392C402.848 302.831 391 0 391 0Z" fill="#C7CECC"/>
<path d="M391 1007V503.5H782.348C782.348 503.5 589.848 525.831 496.348 615C402.848 704.169 391 1007 391 1007Z" fill="#C7CECC"/>
</svg>
