<svg width="176" height="280" viewBox="0 0 176 280" fill="none" xmlns="http://www.w3.org/2000/svg">
<path d="M89.3123 279.498C66.5581 279.498 27.3871 269.909 6.33984 233.556L18.3082 211.83C43.6818 264.335 77.524 269.909 98.3592 269.909C132.353 269.909 150.05 247.136 150.05 208.21C150.05 146.426 19.6789 129.779 16.3892 66.3242C14.196 21.7548 46.9874 0 90.3027 0C111.138 0 131.535 6.5492 155.934 16.7473L151.634 57.9366C139.866 28.0639 107.23 9.50523 88.0395 9.50523C56.2384 9.50523 41.6321 27.7987 43.0029 54.9936C45.7443 107.873 172.012 127.838 175.85 205.268C178.591 256.258 137.014 279.498 89.3123 279.498Z" fill="#FFFBEF"/>
<path d="M21.8643 149.587C22.8885 153.667 25.0822 158.451 27.9727 162.638C30.0091 165.587 32.4105 168.27 35.0283 170.22C36.7681 171.515 38.6178 172.493 40.5273 173.005C39.5691 173.344 38.5279 173.819 37.4492 174.418C35.1067 175.719 32.5281 177.628 30.1299 180.075C26.2916 183.991 22.8948 189.309 21.6914 195.734C20.6801 190.819 18.306 185.866 15.2031 181.806C11.7877 177.337 7.42206 173.865 2.92969 172.77C3.78601 172.46 4.72206 172.043 5.69922 171.522C8.00735 170.294 10.609 168.47 13.0527 166.079C17.1031 162.116 20.7368 156.574 21.8643 149.587Z" fill="#FFFBEF" stroke="#FFFBEF"/>
</svg>
