<svg width="1157" height="639" viewBox="0 0 1157 639" fill="none" xmlns="http://www.w3.org/2000/svg">
<path d="M544.052 610.18C444.467 592.403 398.669 508.808 418.402 398.265C438.35 286.515 510.459 222.72 610.043 240.497C706.233 257.668 754.079 342.875 734.13 454.626C714.397 565.168 640.241 627.35 544.052 610.18ZM551 594C617.201 605.817 664.095 536.243 680.377 445.03C696.12 356.838 669.201 269.317 603 257.5C532.272 244.874 488.464 319.769 472.721 407.962C456.438 499.174 480.272 581.375 551 594Z" fill="#B8C2C4"/>
<path d="M868.159 612.386C814.706 612.386 774 580.405 774 508V259L819.5 240V523.5C819.5 574.429 850.463 592.5 881.5 592.5C934.953 592.5 980.304 530.018 989.5 430V257.5L1034 238.5V612.386H989.5V476.166C991.224 570 936.5 612.386 868.159 612.386Z" fill="#B8C2C4"/>
<path d="M1156.5 612.386H1106.02V91.5L1156.5 61V612.386Z" fill="#B8C2C4"/>
<path d="M197.312 617.998C147.041 617.998 60.5 596.812 14 516.498L40.4418 468.498C96.5 584.498 171.268 596.812 217.299 596.812C292.403 596.812 331.5 546.5 331.5 460.5C331.5 324 43.4702 287.222 36.2021 147.031C31.3567 48.5631 103.803 0.5 199.5 0.5C245.531 0.5 290.595 14.9692 344.5 37.5L335 128.5C309 62.5019 236.897 21.5 194.5 21.5C124.242 21.5 91.9716 61.916 95 121.998C101.057 238.824 380.021 282.933 388.5 454C394.557 566.654 302.7 617.998 197.312 617.998Z" fill="#B8C2C4"/>
<path d="M48.1621 327.504C49.9286 337.049 55.1219 349.08 62.2979 359.474C66.771 365.952 72.0334 371.824 77.75 376.081C82.2127 379.404 86.9707 381.756 91.8584 382.627C89.2565 383.324 86.2361 384.592 83.0312 386.371C77.9077 389.216 72.2568 393.399 66.998 398.765C57.8767 408.071 49.9099 420.962 47.957 436.624C46.2536 424.732 40.673 412.431 33.1074 402.531C25.023 391.953 14.5926 384.018 4.0918 382.333C6.46976 381.67 9.28321 380.522 12.3076 378.912C17.357 376.224 23.0569 372.228 28.4141 366.986C37.9377 357.668 46.3984 344.39 48.1621 327.504Z" fill="#B8C2C4" stroke="#B8C2C4"/>
</svg>
